<svg xmlns="http://www.w3.org/2000/svg" width="40" height="40" viewBox="0 0 40 40">
    <g fill="none" fill-rule="evenodd">
        <g>
            <g transform="translate(-1400 -335) translate(1400 335)">
                <circle cx="20" cy="20" r="19.5" fill="#FFF" stroke="#DDD" opacity=".7"/>
                <path stroke="#333" d="M24.687 13.3c1.198 0 2.319.529 3.134 1.344.867.904 1.297 2.11 1.297 3.316 0 1.2-.427 2.404-1.288 3.307h0l-7.804 7.367-7.803-7.367c-.861-.903-1.288-2.106-1.288-3.307 0-1.205.43-2.412 1.296-3.316.859-.896 1.997-1.344 3.135-1.344 1.138 0 2.276.448 3.13 1.34h0l1.53 1.64 1.534-1.644c.819-.893 1.937-1.336 3.127-1.336z"/>
            </g>
        </g>
    </g>
</svg>
